<mxfile host="app.diagrams.net" agent="Mozilla/5.0 (Windows NT 10.0; Win64; x64) AppleWebKit/537.36 (KHTML, like Gecko) Chrome/129.0.0.0 Safari/537.36" version="24.7.17" pages="3">
  <diagram id="C5RBs43oDa-KdzZeNtuy" name="Page-1">
    <mxGraphModel dx="1674" dy="780" grid="1" gridSize="10" guides="1" tooltips="1" connect="1" arrows="1" fold="1" page="1" pageScale="1" pageWidth="827" pageHeight="1169" math="0" shadow="0">
      <root>
        <mxCell id="WIyWlLk6GJQsqaUBKTNV-0" />
        <mxCell id="WIyWlLk6GJQsqaUBKTNV-1" parent="WIyWlLk6GJQsqaUBKTNV-0" />
        <mxCell id="u-OTWruxeNZf-Z1aO0uA-0" value="CENTRO DE EXPOSICIONES" style="rounded=0;whiteSpace=wrap;html=1;" vertex="1" parent="WIyWlLk6GJQsqaUBKTNV-1">
          <mxGeometry x="60" y="290" width="100" height="50" as="geometry" />
        </mxCell>
        <mxCell id="u-OTWruxeNZf-Z1aO0uA-1" value="PABELLONES" style="rounded=0;whiteSpace=wrap;html=1;" vertex="1" parent="WIyWlLk6GJQsqaUBKTNV-1">
          <mxGeometry x="570" y="290" width="100" height="50" as="geometry" />
        </mxCell>
        <mxCell id="u-OTWruxeNZf-Z1aO0uA-2" value="" style="rhombus;whiteSpace=wrap;html=1;" vertex="1" parent="WIyWlLk6GJQsqaUBKTNV-1">
          <mxGeometry x="350" y="290" width="50" height="50" as="geometry" />
        </mxCell>
        <mxCell id="u-OTWruxeNZf-Z1aO0uA-3" value="" style="endArrow=none;html=1;rounded=0;entryX=1;entryY=0.5;entryDx=0;entryDy=0;exitX=0;exitY=0.5;exitDx=0;exitDy=0;" edge="1" parent="WIyWlLk6GJQsqaUBKTNV-1" source="u-OTWruxeNZf-Z1aO0uA-2" target="u-OTWruxeNZf-Z1aO0uA-0">
          <mxGeometry width="50" height="50" relative="1" as="geometry">
            <mxPoint x="390" y="430" as="sourcePoint" />
            <mxPoint x="440" y="380" as="targetPoint" />
          </mxGeometry>
        </mxCell>
        <mxCell id="u-OTWruxeNZf-Z1aO0uA-4" value="" style="endArrow=none;html=1;rounded=0;entryX=1;entryY=0.5;entryDx=0;entryDy=0;exitX=0;exitY=0.5;exitDx=0;exitDy=0;" edge="1" parent="WIyWlLk6GJQsqaUBKTNV-1" source="u-OTWruxeNZf-Z1aO0uA-1" target="u-OTWruxeNZf-Z1aO0uA-2">
          <mxGeometry width="50" height="50" relative="1" as="geometry">
            <mxPoint x="390" y="430" as="sourcePoint" />
            <mxPoint x="440" y="380" as="targetPoint" />
          </mxGeometry>
        </mxCell>
        <mxCell id="u-OTWruxeNZf-Z1aO0uA-5" value="&lt;u&gt;COD_CENTRO&lt;/u&gt;&lt;div&gt;&lt;u&gt;pk&lt;/u&gt;&lt;/div&gt;" style="ellipse;whiteSpace=wrap;html=1;" vertex="1" parent="WIyWlLk6GJQsqaUBKTNV-1">
          <mxGeometry x="160" y="400" width="80" height="50" as="geometry" />
        </mxCell>
        <mxCell id="u-OTWruxeNZf-Z1aO0uA-6" value="NOMBRE" style="ellipse;whiteSpace=wrap;html=1;" vertex="1" parent="WIyWlLk6GJQsqaUBKTNV-1">
          <mxGeometry x="20" y="400" width="80" height="50" as="geometry" />
        </mxCell>
        <mxCell id="u-OTWruxeNZf-Z1aO0uA-7" value="" style="endArrow=none;html=1;rounded=0;entryX=0.13;entryY=1.06;entryDx=0;entryDy=0;entryPerimeter=0;exitX=0.5;exitY=0;exitDx=0;exitDy=0;" edge="1" parent="WIyWlLk6GJQsqaUBKTNV-1" source="u-OTWruxeNZf-Z1aO0uA-6" target="u-OTWruxeNZf-Z1aO0uA-0">
          <mxGeometry width="50" height="50" relative="1" as="geometry">
            <mxPoint x="390" y="430" as="sourcePoint" />
            <mxPoint x="440" y="380" as="targetPoint" />
          </mxGeometry>
        </mxCell>
        <mxCell id="u-OTWruxeNZf-Z1aO0uA-8" value="" style="endArrow=none;html=1;rounded=0;entryX=0.68;entryY=1.06;entryDx=0;entryDy=0;entryPerimeter=0;exitX=0.25;exitY=0;exitDx=0;exitDy=0;exitPerimeter=0;" edge="1" parent="WIyWlLk6GJQsqaUBKTNV-1" source="u-OTWruxeNZf-Z1aO0uA-5" target="u-OTWruxeNZf-Z1aO0uA-0">
          <mxGeometry width="50" height="50" relative="1" as="geometry">
            <mxPoint x="390" y="430" as="sourcePoint" />
            <mxPoint x="440" y="380" as="targetPoint" />
          </mxGeometry>
        </mxCell>
        <mxCell id="u-OTWruxeNZf-Z1aO0uA-9" value="CAPACIDAD" style="ellipse;whiteSpace=wrap;html=1;" vertex="1" parent="WIyWlLk6GJQsqaUBKTNV-1">
          <mxGeometry x="730" y="270" width="80" height="60" as="geometry" />
        </mxCell>
        <mxCell id="u-OTWruxeNZf-Z1aO0uA-10" value="SUPERFICIE" style="ellipse;whiteSpace=wrap;html=1;" vertex="1" parent="WIyWlLk6GJQsqaUBKTNV-1">
          <mxGeometry x="660" y="170" width="90" height="60" as="geometry" />
        </mxCell>
        <mxCell id="u-OTWruxeNZf-Z1aO0uA-11" value="&lt;u&gt;NUMERO&lt;/u&gt;&lt;div&gt;&lt;u&gt;pk&lt;/u&gt;&lt;/div&gt;" style="ellipse;whiteSpace=wrap;html=1;" vertex="1" parent="WIyWlLk6GJQsqaUBKTNV-1">
          <mxGeometry x="520" y="170" width="90" height="60" as="geometry" />
        </mxCell>
        <mxCell id="u-OTWruxeNZf-Z1aO0uA-12" value="" style="endArrow=none;html=1;rounded=0;entryX=0.038;entryY=0.633;entryDx=0;entryDy=0;entryPerimeter=0;exitX=1;exitY=0.5;exitDx=0;exitDy=0;" edge="1" parent="WIyWlLk6GJQsqaUBKTNV-1" source="u-OTWruxeNZf-Z1aO0uA-1" target="u-OTWruxeNZf-Z1aO0uA-9">
          <mxGeometry width="50" height="50" relative="1" as="geometry">
            <mxPoint x="390" y="430" as="sourcePoint" />
            <mxPoint x="440" y="380" as="targetPoint" />
          </mxGeometry>
        </mxCell>
        <mxCell id="u-OTWruxeNZf-Z1aO0uA-13" value="" style="endArrow=none;html=1;rounded=0;exitX=0.69;exitY=-0.02;exitDx=0;exitDy=0;exitPerimeter=0;" edge="1" parent="WIyWlLk6GJQsqaUBKTNV-1" source="u-OTWruxeNZf-Z1aO0uA-1" target="u-OTWruxeNZf-Z1aO0uA-10">
          <mxGeometry width="50" height="50" relative="1" as="geometry">
            <mxPoint x="390" y="430" as="sourcePoint" />
            <mxPoint x="440" y="380" as="targetPoint" />
          </mxGeometry>
        </mxCell>
        <mxCell id="u-OTWruxeNZf-Z1aO0uA-14" value="" style="endArrow=none;html=1;rounded=0;entryX=0.5;entryY=1;entryDx=0;entryDy=0;exitX=0.1;exitY=0;exitDx=0;exitDy=0;exitPerimeter=0;" edge="1" parent="WIyWlLk6GJQsqaUBKTNV-1" source="u-OTWruxeNZf-Z1aO0uA-1" target="u-OTWruxeNZf-Z1aO0uA-11">
          <mxGeometry width="50" height="50" relative="1" as="geometry">
            <mxPoint x="390" y="430" as="sourcePoint" />
            <mxPoint x="440" y="380" as="targetPoint" />
          </mxGeometry>
        </mxCell>
        <mxCell id="u-OTWruxeNZf-Z1aO0uA-15" value="(1,1)" style="text;html=1;align=center;verticalAlign=middle;whiteSpace=wrap;rounded=0;" vertex="1" parent="WIyWlLk6GJQsqaUBKTNV-1">
          <mxGeometry x="600" y="350" width="60" height="30" as="geometry" />
        </mxCell>
        <mxCell id="u-OTWruxeNZf-Z1aO0uA-16" value="(1,N)" style="text;html=1;align=center;verticalAlign=middle;whiteSpace=wrap;rounded=0;" vertex="1" parent="WIyWlLk6GJQsqaUBKTNV-1">
          <mxGeometry x="345" y="340" width="60" height="30" as="geometry" />
        </mxCell>
        <mxCell id="u-OTWruxeNZf-Z1aO0uA-17" value="(1,N)" style="text;html=1;align=center;verticalAlign=middle;whiteSpace=wrap;rounded=0;" vertex="1" parent="WIyWlLk6GJQsqaUBKTNV-1">
          <mxGeometry x="40" y="260" width="60" height="30" as="geometry" />
        </mxCell>
        <mxCell id="u-OTWruxeNZf-Z1aO0uA-18" value="ENTIDAD DÃ‰BIL" style="text;html=1;align=center;verticalAlign=middle;whiteSpace=wrap;rounded=0;" vertex="1" parent="WIyWlLk6GJQsqaUBKTNV-1">
          <mxGeometry x="690" y="480" width="100" height="30" as="geometry" />
        </mxCell>
        <mxCell id="u-OTWruxeNZf-Z1aO0uA-19" value="" style="endArrow=classic;html=1;rounded=0;exitX=0.59;exitY=0;exitDx=0;exitDy=0;exitPerimeter=0;" edge="1" parent="WIyWlLk6GJQsqaUBKTNV-1" source="u-OTWruxeNZf-Z1aO0uA-18">
          <mxGeometry width="50" height="50" relative="1" as="geometry">
            <mxPoint x="390" y="430" as="sourcePoint" />
            <mxPoint x="670" y="350" as="targetPoint" />
          </mxGeometry>
        </mxCell>
        <mxCell id="u-OTWruxeNZf-Z1aO0uA-20" value="Clave parcial" style="text;html=1;align=center;verticalAlign=middle;whiteSpace=wrap;rounded=0;" vertex="1" parent="WIyWlLk6GJQsqaUBKTNV-1">
          <mxGeometry x="470" y="80" width="60" height="30" as="geometry" />
        </mxCell>
        <mxCell id="u-OTWruxeNZf-Z1aO0uA-21" value="" style="endArrow=classic;html=1;rounded=0;exitX=0.5;exitY=1;exitDx=0;exitDy=0;" edge="1" parent="WIyWlLk6GJQsqaUBKTNV-1" source="u-OTWruxeNZf-Z1aO0uA-20" target="u-OTWruxeNZf-Z1aO0uA-11">
          <mxGeometry width="50" height="50" relative="1" as="geometry">
            <mxPoint x="390" y="430" as="sourcePoint" />
            <mxPoint x="440" y="380" as="targetPoint" />
          </mxGeometry>
        </mxCell>
        <mxCell id="u-OTWruxeNZf-Z1aO0uA-22" value="entidad identificadora" style="text;html=1;align=center;verticalAlign=middle;whiteSpace=wrap;rounded=0;" vertex="1" parent="WIyWlLk6GJQsqaUBKTNV-1">
          <mxGeometry x="40" y="150" width="80" height="30" as="geometry" />
        </mxCell>
        <mxCell id="u-OTWruxeNZf-Z1aO0uA-23" value="" style="endArrow=classic;html=1;rounded=0;exitX=0.5;exitY=1;exitDx=0;exitDy=0;" edge="1" parent="WIyWlLk6GJQsqaUBKTNV-1" source="u-OTWruxeNZf-Z1aO0uA-22">
          <mxGeometry width="50" height="50" relative="1" as="geometry">
            <mxPoint x="390" y="430" as="sourcePoint" />
            <mxPoint x="110" y="280" as="targetPoint" />
          </mxGeometry>
        </mxCell>
        <mxCell id="4d9h7vOy2SD9EBWeFUo2-0" value="Centro de exposiciones" style="swimlane;fontStyle=0;childLayout=stackLayout;horizontal=1;startSize=26;fillColor=none;horizontalStack=0;resizeParent=1;resizeParentMax=0;resizeLast=0;collapsible=1;marginBottom=0;html=1;" vertex="1" parent="WIyWlLk6GJQsqaUBKTNV-1">
          <mxGeometry x="250" y="520" width="140" height="78" as="geometry" />
        </mxCell>
        <mxCell id="4d9h7vOy2SD9EBWeFUo2-1" value="Nombre" style="text;strokeColor=none;fillColor=none;align=left;verticalAlign=top;spacingLeft=4;spacingRight=4;overflow=hidden;rotatable=0;points=[[0,0.5],[1,0.5]];portConstraint=eastwest;whiteSpace=wrap;html=1;" vertex="1" parent="4d9h7vOy2SD9EBWeFUo2-0">
          <mxGeometry y="26" width="140" height="26" as="geometry" />
        </mxCell>
        <mxCell id="4d9h7vOy2SD9EBWeFUo2-2" value="cod_centro PK" style="text;strokeColor=none;fillColor=none;align=left;verticalAlign=top;spacingLeft=4;spacingRight=4;overflow=hidden;rotatable=0;points=[[0,0.5],[1,0.5]];portConstraint=eastwest;whiteSpace=wrap;html=1;" vertex="1" parent="4d9h7vOy2SD9EBWeFUo2-0">
          <mxGeometry y="52" width="140" height="26" as="geometry" />
        </mxCell>
        <mxCell id="4d9h7vOy2SD9EBWeFUo2-4" value="Pabellones&amp;nbsp;" style="swimlane;fontStyle=0;childLayout=stackLayout;horizontal=1;startSize=26;fillColor=none;horizontalStack=0;resizeParent=1;resizeParentMax=0;resizeLast=0;collapsible=1;marginBottom=0;html=1;" vertex="1" parent="WIyWlLk6GJQsqaUBKTNV-1">
          <mxGeometry x="30" y="520" width="140" height="130" as="geometry" />
        </mxCell>
        <mxCell id="4d9h7vOy2SD9EBWeFUo2-5" value="Numero_pk" style="text;strokeColor=none;fillColor=none;align=left;verticalAlign=top;spacingLeft=4;spacingRight=4;overflow=hidden;rotatable=0;points=[[0,0.5],[1,0.5]];portConstraint=eastwest;whiteSpace=wrap;html=1;" vertex="1" parent="4d9h7vOy2SD9EBWeFUo2-4">
          <mxGeometry y="26" width="140" height="26" as="geometry" />
        </mxCell>
        <mxCell id="4d9h7vOy2SD9EBWeFUo2-6" value="Superficie" style="text;strokeColor=none;fillColor=none;align=left;verticalAlign=top;spacingLeft=4;spacingRight=4;overflow=hidden;rotatable=0;points=[[0,0.5],[1,0.5]];portConstraint=eastwest;whiteSpace=wrap;html=1;" vertex="1" parent="4d9h7vOy2SD9EBWeFUo2-4">
          <mxGeometry y="52" width="140" height="26" as="geometry" />
        </mxCell>
        <mxCell id="4d9h7vOy2SD9EBWeFUo2-7" value="capacidad&lt;div&gt;&lt;br&gt;&lt;/div&gt;" style="text;strokeColor=none;fillColor=none;align=left;verticalAlign=top;spacingLeft=4;spacingRight=4;overflow=hidden;rotatable=0;points=[[0,0.5],[1,0.5]];portConstraint=eastwest;whiteSpace=wrap;html=1;" vertex="1" parent="4d9h7vOy2SD9EBWeFUo2-4">
          <mxGeometry y="78" width="140" height="26" as="geometry" />
        </mxCell>
        <mxCell id="4d9h7vOy2SD9EBWeFUo2-8" value="Cod_centro FK" style="text;strokeColor=none;fillColor=none;align=left;verticalAlign=top;spacingLeft=4;spacingRight=4;overflow=hidden;rotatable=0;points=[[0,0.5],[1,0.5]];portConstraint=eastwest;whiteSpace=wrap;html=1;" vertex="1" parent="4d9h7vOy2SD9EBWeFUo2-4">
          <mxGeometry y="104" width="140" height="26" as="geometry" />
        </mxCell>
        <mxCell id="4d9h7vOy2SD9EBWeFUo2-9" value="&lt;h1 style=&quot;margin-top: 0px;&quot;&gt;&lt;span style=&quot;background-color: initial;&quot;&gt;&lt;font style=&quot;font-size: 14px;&quot;&gt;Diferencia entre especificaciÃ³n y generalizaciÃ³n&lt;/font&gt;&amp;nbsp;&lt;/span&gt;&lt;/h1&gt;&lt;h1 style=&quot;margin-top: 0px;&quot;&gt;&lt;span style=&quot;font-size: 12px; font-weight: 400;&quot;&gt;en la especificaciÃ³n tomamos una entidad y la dividimos con sus atributos adicionales y en la generalizaciÃ³n compartimos los atributos de todas las entidades&lt;/span&gt;&lt;/h1&gt;" style="text;html=1;whiteSpace=wrap;overflow=hidden;rounded=0;" vertex="1" parent="WIyWlLk6GJQsqaUBKTNV-1">
          <mxGeometry x="20" y="700" width="380" height="150" as="geometry" />
        </mxCell>
      </root>
    </mxGraphModel>
  </diagram>
  <diagram id="EaDfPbxlN57Jo-UXpyIp" name="PÃ¡gina-2">
    <mxGraphModel dx="1674" dy="780" grid="1" gridSize="10" guides="1" tooltips="1" connect="1" arrows="1" fold="1" page="1" pageScale="1" pageWidth="827" pageHeight="1169" math="0" shadow="0">
      <root>
        <mxCell id="0" />
        <mxCell id="1" parent="0" />
        <mxCell id="ALu4gIsXwXA2hYYaIQ6P-1" value="Punto 2)" style="text;html=1;align=center;verticalAlign=middle;whiteSpace=wrap;rounded=0;" vertex="1" parent="1">
          <mxGeometry x="10" y="20" width="60" height="30" as="geometry" />
        </mxCell>
        <mxCell id="ALu4gIsXwXA2hYYaIQ6P-2" value="&lt;font style=&quot;font-size: 24px;&quot;&gt;&lt;b&gt;Cine&lt;/b&gt;&lt;/font&gt;" style="text;html=1;align=center;verticalAlign=middle;whiteSpace=wrap;rounded=0;" vertex="1" parent="1">
          <mxGeometry x="40" y="60" width="70" height="40" as="geometry" />
        </mxCell>
        <mxCell id="ALu4gIsXwXA2hYYaIQ6P-4" value="&lt;font style=&quot;font-size: 14px;&quot;&gt;Cine&lt;/font&gt;" style="rounded=0;whiteSpace=wrap;html=1;" vertex="1" parent="1">
          <mxGeometry x="40" y="300" width="120" height="60" as="geometry" />
        </mxCell>
        <mxCell id="ALu4gIsXwXA2hYYaIQ6P-5" value="Sala" style="rounded=0;whiteSpace=wrap;html=1;" vertex="1" parent="1">
          <mxGeometry x="680" y="300" width="120" height="60" as="geometry" />
        </mxCell>
        <mxCell id="ALu4gIsXwXA2hYYaIQ6P-6" value="&lt;font style=&quot;font-size: 10px;&quot;&gt;SalaxCine&lt;/font&gt;" style="rhombus;whiteSpace=wrap;html=1;" vertex="1" parent="1">
          <mxGeometry x="380" y="310" width="60" height="65" as="geometry" />
        </mxCell>
        <mxCell id="ALu4gIsXwXA2hYYaIQ6P-7" value="TelÃ©fono" style="ellipse;whiteSpace=wrap;html=1;" vertex="1" parent="1">
          <mxGeometry x="10" y="410" width="80" height="60" as="geometry" />
        </mxCell>
        <mxCell id="ALu4gIsXwXA2hYYaIQ6P-8" value="&lt;u&gt;Cod-cine&lt;/u&gt;" style="ellipse;whiteSpace=wrap;html=1;" vertex="1" parent="1">
          <mxGeometry x="130" y="190" width="80" height="60" as="geometry" />
        </mxCell>
        <mxCell id="ALu4gIsXwXA2hYYaIQ6P-9" value="DirecciÃ³n" style="ellipse;whiteSpace=wrap;html=1;" vertex="1" parent="1">
          <mxGeometry x="10" y="190" width="80" height="60" as="geometry" />
        </mxCell>
        <mxCell id="ALu4gIsXwXA2hYYaIQ6P-10" value="" style="endArrow=none;html=1;rounded=0;entryX=0.358;entryY=1;entryDx=0;entryDy=0;entryPerimeter=0;exitX=0.663;exitY=-0.017;exitDx=0;exitDy=0;exitPerimeter=0;" edge="1" parent="1" source="ALu4gIsXwXA2hYYaIQ6P-7" target="ALu4gIsXwXA2hYYaIQ6P-4">
          <mxGeometry width="50" height="50" relative="1" as="geometry">
            <mxPoint x="390" y="430" as="sourcePoint" />
            <mxPoint x="440" y="380" as="targetPoint" />
          </mxGeometry>
        </mxCell>
        <mxCell id="ALu4gIsXwXA2hYYaIQ6P-11" value="" style="endArrow=none;html=1;rounded=0;entryX=0.5;entryY=1;entryDx=0;entryDy=0;exitX=0.675;exitY=0;exitDx=0;exitDy=0;exitPerimeter=0;" edge="1" parent="1" source="ALu4gIsXwXA2hYYaIQ6P-4" target="ALu4gIsXwXA2hYYaIQ6P-8">
          <mxGeometry width="50" height="50" relative="1" as="geometry">
            <mxPoint x="390" y="430" as="sourcePoint" />
            <mxPoint x="440" y="380" as="targetPoint" />
          </mxGeometry>
        </mxCell>
        <mxCell id="ALu4gIsXwXA2hYYaIQ6P-12" value="" style="endArrow=none;html=1;rounded=0;entryX=0.5;entryY=1;entryDx=0;entryDy=0;exitX=0.167;exitY=-0.033;exitDx=0;exitDy=0;exitPerimeter=0;" edge="1" parent="1" source="ALu4gIsXwXA2hYYaIQ6P-4" target="ALu4gIsXwXA2hYYaIQ6P-9">
          <mxGeometry width="50" height="50" relative="1" as="geometry">
            <mxPoint x="390" y="430" as="sourcePoint" />
            <mxPoint x="440" y="380" as="targetPoint" />
          </mxGeometry>
        </mxCell>
        <mxCell id="ALu4gIsXwXA2hYYaIQ6P-13" value="" style="endArrow=none;html=1;rounded=0;entryX=0;entryY=0.5;entryDx=0;entryDy=0;exitX=1;exitY=0.5;exitDx=0;exitDy=0;" edge="1" parent="1" source="ALu4gIsXwXA2hYYaIQ6P-6" target="ALu4gIsXwXA2hYYaIQ6P-5">
          <mxGeometry width="50" height="50" relative="1" as="geometry">
            <mxPoint x="390" y="430" as="sourcePoint" />
            <mxPoint x="440" y="380" as="targetPoint" />
          </mxGeometry>
        </mxCell>
        <mxCell id="ALu4gIsXwXA2hYYaIQ6P-14" value="" style="endArrow=none;html=1;rounded=0;entryX=1.033;entryY=0.617;entryDx=0;entryDy=0;entryPerimeter=0;exitX=0;exitY=0.5;exitDx=0;exitDy=0;" edge="1" parent="1" source="ALu4gIsXwXA2hYYaIQ6P-6" target="ALu4gIsXwXA2hYYaIQ6P-4">
          <mxGeometry width="50" height="50" relative="1" as="geometry">
            <mxPoint x="390" y="430" as="sourcePoint" />
            <mxPoint x="440" y="380" as="targetPoint" />
          </mxGeometry>
        </mxCell>
        <mxCell id="ALu4gIsXwXA2hYYaIQ6P-16" value="&lt;u&gt;Cod_sala&lt;/u&gt;" style="ellipse;whiteSpace=wrap;html=1;" vertex="1" parent="1">
          <mxGeometry x="740" y="170" width="80" height="60" as="geometry" />
        </mxCell>
        <mxCell id="ALu4gIsXwXA2hYYaIQ6P-17" value="numero&lt;div&gt;butaca&lt;/div&gt;" style="ellipse;whiteSpace=wrap;html=1;" vertex="1" parent="1">
          <mxGeometry x="610" y="180" width="80" height="60" as="geometry" />
        </mxCell>
        <mxCell id="ALu4gIsXwXA2hYYaIQ6P-18" value="" style="endArrow=none;html=1;rounded=0;entryX=0.5;entryY=1;entryDx=0;entryDy=0;exitX=0.067;exitY=-0.033;exitDx=0;exitDy=0;exitPerimeter=0;" edge="1" parent="1" source="ALu4gIsXwXA2hYYaIQ6P-5" target="ALu4gIsXwXA2hYYaIQ6P-17">
          <mxGeometry width="50" height="50" relative="1" as="geometry">
            <mxPoint x="390" y="430" as="sourcePoint" />
            <mxPoint x="440" y="380" as="targetPoint" />
          </mxGeometry>
        </mxCell>
        <mxCell id="ALu4gIsXwXA2hYYaIQ6P-19" value="" style="endArrow=none;html=1;rounded=0;entryX=0.5;entryY=1;entryDx=0;entryDy=0;exitX=0.625;exitY=-0.033;exitDx=0;exitDy=0;exitPerimeter=0;" edge="1" parent="1" source="ALu4gIsXwXA2hYYaIQ6P-5" target="ALu4gIsXwXA2hYYaIQ6P-16">
          <mxGeometry width="50" height="50" relative="1" as="geometry">
            <mxPoint x="390" y="430" as="sourcePoint" />
            <mxPoint x="440" y="380" as="targetPoint" />
          </mxGeometry>
        </mxCell>
        <mxCell id="ALu4gIsXwXA2hYYaIQ6P-20" value="Clave parcial" style="text;html=1;align=center;verticalAlign=middle;whiteSpace=wrap;rounded=0;" vertex="1" parent="1">
          <mxGeometry x="720" y="60" width="60" height="30" as="geometry" />
        </mxCell>
        <mxCell id="ALu4gIsXwXA2hYYaIQ6P-22" value="" style="endArrow=classic;html=1;rounded=0;exitX=0.5;exitY=1;exitDx=0;exitDy=0;" edge="1" parent="1" source="ALu4gIsXwXA2hYYaIQ6P-20">
          <mxGeometry width="50" height="50" relative="1" as="geometry">
            <mxPoint x="390" y="430" as="sourcePoint" />
            <mxPoint x="760" y="160" as="targetPoint" />
          </mxGeometry>
        </mxCell>
        <mxCell id="ALu4gIsXwXA2hYYaIQ6P-23" value="" style="endArrow=classic;html=1;rounded=0;" edge="1" parent="1">
          <mxGeometry width="50" height="50" relative="1" as="geometry">
            <mxPoint x="130" y="550" as="sourcePoint" />
            <mxPoint x="130" y="370" as="targetPoint" />
          </mxGeometry>
        </mxCell>
        <mxCell id="aiDY7BkjNSy9jQ1HRI78-1" value="entidad identificadora" style="text;html=1;align=center;verticalAlign=middle;whiteSpace=wrap;rounded=0;" vertex="1" parent="1">
          <mxGeometry x="100" y="555" width="70" height="30" as="geometry" />
        </mxCell>
        <mxCell id="aiDY7BkjNSy9jQ1HRI78-2" value="" style="endArrow=classic;html=1;rounded=0;entryX=0.5;entryY=1;entryDx=0;entryDy=0;" edge="1" parent="1" target="ALu4gIsXwXA2hYYaIQ6P-5">
          <mxGeometry width="50" height="50" relative="1" as="geometry">
            <mxPoint x="740" y="550" as="sourcePoint" />
            <mxPoint x="440" y="380" as="targetPoint" />
          </mxGeometry>
        </mxCell>
        <mxCell id="aiDY7BkjNSy9jQ1HRI78-3" value="Entidad dÃ©bil" style="text;html=1;align=center;verticalAlign=middle;whiteSpace=wrap;rounded=0;" vertex="1" parent="1">
          <mxGeometry x="710" y="555" width="60" height="30" as="geometry" />
        </mxCell>
        <mxCell id="aiDY7BkjNSy9jQ1HRI78-4" value="(1,n)" style="text;html=1;align=center;verticalAlign=middle;whiteSpace=wrap;rounded=0;" vertex="1" parent="1">
          <mxGeometry x="160" y="300" width="60" height="30" as="geometry" />
        </mxCell>
        <mxCell id="aiDY7BkjNSy9jQ1HRI78-5" value="(1,1)" style="text;html=1;align=center;verticalAlign=middle;whiteSpace=wrap;rounded=0;" vertex="1" parent="1">
          <mxGeometry x="620" y="300" width="60" height="30" as="geometry" />
        </mxCell>
        <mxCell id="aiDY7BkjNSy9jQ1HRI78-6" value="(1,n)" style="text;html=1;align=center;verticalAlign=middle;whiteSpace=wrap;rounded=0;" vertex="1" parent="1">
          <mxGeometry x="380" y="370" width="60" height="30" as="geometry" />
        </mxCell>
        <mxCell id="aiDY7BkjNSy9jQ1HRI78-7" value="participaciÃ³n total" style="text;html=1;align=center;verticalAlign=middle;whiteSpace=wrap;rounded=0;" vertex="1" parent="1">
          <mxGeometry x="20" y="650" width="90" height="30" as="geometry" />
        </mxCell>
      </root>
    </mxGraphModel>
  </diagram>
  <diagram id="OI5hVMl7fbOwPUDFhEmn" name="PÃ¡gina-3">
    <mxGraphModel dx="1674" dy="780" grid="1" gridSize="10" guides="1" tooltips="1" connect="1" arrows="1" fold="1" page="1" pageScale="1" pageWidth="827" pageHeight="1169" math="0" shadow="0">
      <root>
        <mxCell id="0" />
        <mxCell id="1" parent="0" />
        <mxCell id="Q_Z5UvJhH4riaAeOvCrb-1" value="&lt;font style=&quot;font-size: 14px;&quot;&gt;&lt;b&gt;BIBLIOTECA&lt;/b&gt;&lt;/font&gt;" style="text;html=1;align=center;verticalAlign=middle;whiteSpace=wrap;rounded=0;" vertex="1" parent="1">
          <mxGeometry x="20" y="20" width="100" height="50" as="geometry" />
        </mxCell>
        <mxCell id="Q_Z5UvJhH4riaAeOvCrb-2" value="Libros&amp;nbsp;" style="rounded=0;whiteSpace=wrap;html=1;" vertex="1" parent="1">
          <mxGeometry x="314.5" y="370" width="91" height="40" as="geometry" />
        </mxCell>
        <mxCell id="Q_Z5UvJhH4riaAeOvCrb-4" value="ES" style="triangle;whiteSpace=wrap;html=1;direction=south;" vertex="1" parent="1">
          <mxGeometry x="338.5" y="220" width="43" height="40" as="geometry" />
        </mxCell>
        <mxCell id="Q_Z5UvJhH4riaAeOvCrb-5" value="DirecciÃ³n" style="ellipse;whiteSpace=wrap;html=1;" vertex="1" parent="1">
          <mxGeometry x="140" y="120" width="60" height="50" as="geometry" />
        </mxCell>
        <mxCell id="Q_Z5UvJhH4riaAeOvCrb-6" value="Nombre" style="ellipse;whiteSpace=wrap;html=1;" vertex="1" parent="1">
          <mxGeometry x="140" y="50" width="60" height="50" as="geometry" />
        </mxCell>
        <mxCell id="Q_Z5UvJhH4riaAeOvCrb-7" value="TelÃ©fonos" style="ellipse;whiteSpace=wrap;html=1;" vertex="1" parent="1">
          <mxGeometry x="510" y="40" width="60" height="50" as="geometry" />
        </mxCell>
        <mxCell id="Q_Z5UvJhH4riaAeOvCrb-9" value="" style="endArrow=none;html=1;rounded=0;entryX=0;entryY=0.75;entryDx=0;entryDy=0;exitX=1;exitY=0.5;exitDx=0;exitDy=0;" edge="1" parent="1" source="Q_Z5UvJhH4riaAeOvCrb-5" target="Q_Z5UvJhH4riaAeOvCrb-3">
          <mxGeometry width="50" height="50" relative="1" as="geometry">
            <mxPoint x="390" y="430" as="sourcePoint" />
            <mxPoint x="440" y="380" as="targetPoint" />
          </mxGeometry>
        </mxCell>
        <mxCell id="Q_Z5UvJhH4riaAeOvCrb-10" value="" style="endArrow=none;html=1;rounded=0;entryX=0;entryY=0.5;entryDx=0;entryDy=0;exitX=1;exitY=0.5;exitDx=0;exitDy=0;" edge="1" parent="1" source="Q_Z5UvJhH4riaAeOvCrb-6" target="Q_Z5UvJhH4riaAeOvCrb-3">
          <mxGeometry width="50" height="50" relative="1" as="geometry">
            <mxPoint x="390" y="430" as="sourcePoint" />
            <mxPoint x="440" y="380" as="targetPoint" />
          </mxGeometry>
        </mxCell>
        <mxCell id="Q_Z5UvJhH4riaAeOvCrb-11" value="" style="endArrow=none;html=1;rounded=0;entryX=0;entryY=0.68;entryDx=0;entryDy=0;entryPerimeter=0;" edge="1" parent="1" source="Q_Z5UvJhH4riaAeOvCrb-3" target="Q_Z5UvJhH4riaAeOvCrb-7">
          <mxGeometry width="50" height="50" relative="1" as="geometry">
            <mxPoint x="450" y="89" as="sourcePoint" />
            <mxPoint x="440" y="380" as="targetPoint" />
          </mxGeometry>
        </mxCell>
        <mxCell id="Q_Z5UvJhH4riaAeOvCrb-12" value="" style="endArrow=none;html=1;rounded=0;entryX=0.5;entryY=1;entryDx=0;entryDy=0;exitX=0;exitY=0.5;exitDx=0;exitDy=0;" edge="1" parent="1" source="Q_Z5UvJhH4riaAeOvCrb-4" target="Q_Z5UvJhH4riaAeOvCrb-3">
          <mxGeometry width="50" height="50" relative="1" as="geometry">
            <mxPoint x="380" y="210" as="sourcePoint" />
            <mxPoint x="440" y="380" as="targetPoint" />
          </mxGeometry>
        </mxCell>
        <mxCell id="Q_Z5UvJhH4riaAeOvCrb-14" value="" style="endArrow=none;html=1;rounded=0;entryX=1;entryY=0.5;entryDx=0;entryDy=0;exitX=0.5;exitY=0;exitDx=0;exitDy=0;" edge="1" parent="1" source="Q_Z5UvJhH4riaAeOvCrb-2" target="Q_Z5UvJhH4riaAeOvCrb-4">
          <mxGeometry width="50" height="50" relative="1" as="geometry">
            <mxPoint x="390" y="430" as="sourcePoint" />
            <mxPoint x="440" y="380" as="targetPoint" />
          </mxGeometry>
        </mxCell>
        <mxCell id="Q_Z5UvJhH4riaAeOvCrb-16" value="TÃ­tulo" style="ellipse;whiteSpace=wrap;html=1;" vertex="1" parent="1">
          <mxGeometry x="475.5" y="380" width="70" height="50" as="geometry" />
        </mxCell>
        <mxCell id="Q_Z5UvJhH4riaAeOvCrb-17" value="&lt;u&gt;Cod_libro&lt;/u&gt;" style="ellipse;whiteSpace=wrap;html=1;" vertex="1" parent="1">
          <mxGeometry x="460" y="330" width="70" height="50" as="geometry" />
        </mxCell>
        <mxCell id="Q_Z5UvJhH4riaAeOvCrb-18" value="GÃ©nero" style="ellipse;whiteSpace=wrap;html=1;" vertex="1" parent="1">
          <mxGeometry x="405.5" y="280" width="70" height="50" as="geometry" />
        </mxCell>
        <mxCell id="Q_Z5UvJhH4riaAeOvCrb-19" value="" style="endArrow=none;html=1;rounded=0;entryX=0.021;entryY=0.8;entryDx=0;entryDy=0;entryPerimeter=0;exitX=0.75;exitY=0;exitDx=0;exitDy=0;" edge="1" parent="1" source="Q_Z5UvJhH4riaAeOvCrb-2" target="Q_Z5UvJhH4riaAeOvCrb-18">
          <mxGeometry width="50" height="50" relative="1" as="geometry">
            <mxPoint x="400" y="500" as="sourcePoint" />
            <mxPoint x="450" y="450" as="targetPoint" />
          </mxGeometry>
        </mxCell>
        <mxCell id="Q_Z5UvJhH4riaAeOvCrb-20" value="" style="endArrow=none;html=1;rounded=0;entryX=0;entryY=0.5;entryDx=0;entryDy=0;exitX=1;exitY=0.75;exitDx=0;exitDy=0;" edge="1" parent="1" source="Q_Z5UvJhH4riaAeOvCrb-2" target="Q_Z5UvJhH4riaAeOvCrb-16">
          <mxGeometry width="50" height="50" relative="1" as="geometry">
            <mxPoint x="378.5" y="590" as="sourcePoint" />
            <mxPoint x="428.5" y="540" as="targetPoint" />
          </mxGeometry>
        </mxCell>
        <mxCell id="Q_Z5UvJhH4riaAeOvCrb-21" value="" style="endArrow=none;html=1;rounded=0;entryX=0;entryY=0.5;entryDx=0;entryDy=0;exitX=1;exitY=0.5;exitDx=0;exitDy=0;" edge="1" parent="1" source="Q_Z5UvJhH4riaAeOvCrb-2" target="Q_Z5UvJhH4riaAeOvCrb-17">
          <mxGeometry width="50" height="50" relative="1" as="geometry">
            <mxPoint x="614" y="390" as="sourcePoint" />
            <mxPoint x="390" y="535" as="targetPoint" />
          </mxGeometry>
        </mxCell>
        <mxCell id="Q_Z5UvJhH4riaAeOvCrb-3" value="&lt;font style=&quot;font-size: 14px;&quot;&gt;Biblioteca&lt;/font&gt;" style="rounded=0;whiteSpace=wrap;html=1;" vertex="1" parent="1">
          <mxGeometry x="300" y="60" width="120" height="60" as="geometry" />
        </mxCell>
        <mxCell id="Q_Z5UvJhH4riaAeOvCrb-35" value="" style="triangle;whiteSpace=wrap;html=1;direction=west;" vertex="1" parent="1">
          <mxGeometry x="180" y="375" width="40" height="40" as="geometry" />
        </mxCell>
        <mxCell id="Q_Z5UvJhH4riaAeOvCrb-36" value="" style="endArrow=none;html=1;rounded=0;exitX=0;exitY=0.5;exitDx=0;exitDy=0;entryX=0;entryY=0.5;entryDx=0;entryDy=0;" edge="1" parent="1" source="Q_Z5UvJhH4riaAeOvCrb-35" target="Q_Z5UvJhH4riaAeOvCrb-2">
          <mxGeometry width="50" height="50" relative="1" as="geometry">
            <mxPoint x="390" y="430" as="sourcePoint" />
            <mxPoint x="440" y="380" as="targetPoint" />
          </mxGeometry>
        </mxCell>
        <mxCell id="Q_Z5UvJhH4riaAeOvCrb-37" value="Editorial" style="rounded=0;whiteSpace=wrap;html=1;" vertex="1" parent="1">
          <mxGeometry x="35" y="380" width="70" height="30" as="geometry" />
        </mxCell>
        <mxCell id="Q_Z5UvJhH4riaAeOvCrb-38" value="" style="endArrow=none;html=1;rounded=0;entryX=0;entryY=1;entryDx=0;entryDy=0;" edge="1" parent="1">
          <mxGeometry width="50" height="50" relative="1" as="geometry">
            <mxPoint x="60" y="480" as="sourcePoint" />
            <mxPoint x="60" y="410" as="targetPoint" />
          </mxGeometry>
        </mxCell>
        <mxCell id="Q_Z5UvJhH4riaAeOvCrb-39" value="" style="endArrow=none;html=1;rounded=0;exitX=0.25;exitY=0;exitDx=0;exitDy=0;" edge="1" parent="1" source="Q_Z5UvJhH4riaAeOvCrb-37" target="Q_Z5UvJhH4riaAeOvCrb-40">
          <mxGeometry width="50" height="50" relative="1" as="geometry">
            <mxPoint x="390" y="430" as="sourcePoint" />
            <mxPoint x="100" y="470" as="targetPoint" />
          </mxGeometry>
        </mxCell>
        <mxCell id="Q_Z5UvJhH4riaAeOvCrb-40" value="Nombre" style="ellipse;whiteSpace=wrap;html=1;" vertex="1" parent="1">
          <mxGeometry x="10" y="300" width="60" height="40" as="geometry" />
        </mxCell>
        <mxCell id="Q_Z5UvJhH4riaAeOvCrb-41" value="GenÃ©rica" style="rounded=0;whiteSpace=wrap;html=1;" vertex="1" parent="1">
          <mxGeometry x="100" y="430" width="80" height="30" as="geometry" />
        </mxCell>
        <mxCell id="Q_Z5UvJhH4riaAeOvCrb-42" value="Propia" style="rounded=0;whiteSpace=wrap;html=1;" vertex="1" parent="1">
          <mxGeometry x="25" y="480" width="80" height="30" as="geometry" />
        </mxCell>
        <mxCell id="Q_Z5UvJhH4riaAeOvCrb-43" value="" style="endArrow=none;html=1;rounded=0;exitX=0.75;exitY=1;exitDx=0;exitDy=0;entryX=0.25;entryY=0;entryDx=0;entryDy=0;" edge="1" parent="1" source="Q_Z5UvJhH4riaAeOvCrb-37" target="Q_Z5UvJhH4riaAeOvCrb-41">
          <mxGeometry width="50" height="50" relative="1" as="geometry">
            <mxPoint x="390" y="430" as="sourcePoint" />
            <mxPoint x="440" y="380" as="targetPoint" />
          </mxGeometry>
        </mxCell>
        <mxCell id="Q_Z5UvJhH4riaAeOvCrb-44" value="" style="endArrow=none;html=1;rounded=0;exitX=1;exitY=0.5;exitDx=0;exitDy=0;entryX=1;entryY=0.5;entryDx=0;entryDy=0;" edge="1" parent="1" source="Q_Z5UvJhH4riaAeOvCrb-37" target="Q_Z5UvJhH4riaAeOvCrb-35">
          <mxGeometry width="50" height="50" relative="1" as="geometry">
            <mxPoint x="390" y="430" as="sourcePoint" />
            <mxPoint x="440" y="380" as="targetPoint" />
          </mxGeometry>
        </mxCell>
        <mxCell id="Q_Z5UvJhH4riaAeOvCrb-45" value="AcadÃ©micos&amp;nbsp;&lt;div&gt;editorial&lt;/div&gt;" style="rounded=0;whiteSpace=wrap;html=1;" vertex="1" parent="1">
          <mxGeometry x="230" y="545" width="100" height="40" as="geometry" />
        </mxCell>
        <mxCell id="Q_Z5UvJhH4riaAeOvCrb-46" value="AcadÃ©micos&amp;nbsp;&lt;div&gt;texto&lt;/div&gt;" style="rounded=0;whiteSpace=wrap;html=1;" vertex="1" parent="1">
          <mxGeometry x="414" y="550" width="104.5" height="40" as="geometry" />
        </mxCell>
        <mxCell id="Q_Z5UvJhH4riaAeOvCrb-47" value="" style="endArrow=none;html=1;rounded=0;entryX=0.75;entryY=1;entryDx=0;entryDy=0;exitX=0.5;exitY=0;exitDx=0;exitDy=0;" edge="1" parent="1" source="Q_Z5UvJhH4riaAeOvCrb-46" target="Q_Z5UvJhH4riaAeOvCrb-2">
          <mxGeometry width="50" height="50" relative="1" as="geometry">
            <mxPoint x="390" y="530" as="sourcePoint" />
            <mxPoint x="440" y="480" as="targetPoint" />
          </mxGeometry>
        </mxCell>
        <mxCell id="Q_Z5UvJhH4riaAeOvCrb-48" value="" style="endArrow=none;html=1;rounded=0;entryX=0.25;entryY=1;entryDx=0;entryDy=0;exitX=0.25;exitY=0;exitDx=0;exitDy=0;" edge="1" parent="1" source="Q_Z5UvJhH4riaAeOvCrb-45" target="Q_Z5UvJhH4riaAeOvCrb-2">
          <mxGeometry width="50" height="50" relative="1" as="geometry">
            <mxPoint x="390" y="530" as="sourcePoint" />
            <mxPoint x="440" y="480" as="targetPoint" />
          </mxGeometry>
        </mxCell>
        <mxCell id="Q_Z5UvJhH4riaAeOvCrb-49" value="Materia" style="ellipse;whiteSpace=wrap;html=1;" vertex="1" parent="1">
          <mxGeometry x="518.5" y="630" width="80" height="50" as="geometry" />
        </mxCell>
        <mxCell id="Q_Z5UvJhH4riaAeOvCrb-50" value="" style="endArrow=none;html=1;rounded=0;entryX=0.5;entryY=1;entryDx=0;entryDy=0;exitX=0;exitY=0;exitDx=0;exitDy=0;" edge="1" parent="1" source="Q_Z5UvJhH4riaAeOvCrb-49" target="Q_Z5UvJhH4riaAeOvCrb-46">
          <mxGeometry width="50" height="50" relative="1" as="geometry">
            <mxPoint x="390" y="630" as="sourcePoint" />
            <mxPoint x="440" y="580" as="targetPoint" />
          </mxGeometry>
        </mxCell>
        <mxCell id="Q_Z5UvJhH4riaAeOvCrb-51" value="telÃ©fono&amp;nbsp;&lt;div&gt;interno 2&lt;/div&gt;" style="ellipse;whiteSpace=wrap;html=1;" vertex="1" parent="1">
          <mxGeometry x="640" y="100" width="70" height="50" as="geometry" />
        </mxCell>
        <mxCell id="Q_Z5UvJhH4riaAeOvCrb-52" value="TelÃ©fono&lt;div&gt;interno&lt;/div&gt;" style="ellipse;whiteSpace=wrap;html=1;" vertex="1" parent="1">
          <mxGeometry x="630" y="10" width="70" height="50" as="geometry" />
        </mxCell>
        <mxCell id="Q_Z5UvJhH4riaAeOvCrb-53" value="" style="endArrow=none;html=1;rounded=0;entryX=0;entryY=0;entryDx=0;entryDy=0;exitX=1;exitY=1;exitDx=0;exitDy=0;" edge="1" parent="1" source="Q_Z5UvJhH4riaAeOvCrb-7" target="Q_Z5UvJhH4riaAeOvCrb-51">
          <mxGeometry width="50" height="50" relative="1" as="geometry">
            <mxPoint x="390" y="330" as="sourcePoint" />
            <mxPoint x="440" y="280" as="targetPoint" />
          </mxGeometry>
        </mxCell>
        <mxCell id="Q_Z5UvJhH4riaAeOvCrb-54" value="" style="endArrow=none;html=1;rounded=0;entryX=0;entryY=0.5;entryDx=0;entryDy=0;exitX=1;exitY=0;exitDx=0;exitDy=0;" edge="1" parent="1" source="Q_Z5UvJhH4riaAeOvCrb-7" target="Q_Z5UvJhH4riaAeOvCrb-52">
          <mxGeometry width="50" height="50" relative="1" as="geometry">
            <mxPoint x="390" y="330" as="sourcePoint" />
            <mxPoint x="440" y="280" as="targetPoint" />
          </mxGeometry>
        </mxCell>
        <mxCell id="Q_Z5UvJhH4riaAeOvCrb-56" value="&lt;h1 style=&quot;margin-top: 0px;&quot;&gt;&lt;font size=&quot;3&quot; style=&quot;&quot;&gt;9&lt;/font&gt;&lt;font style=&quot;font-size: 14px;&quot;&gt;) Cardinalidad del prÃ©stamo libro&lt;/font&gt;&lt;/h1&gt;&lt;p&gt;Una persona puede pedir muchos libros pero un libro solo puede ser prestado a una persona.&lt;/p&gt;" style="text;html=1;whiteSpace=wrap;overflow=hidden;rounded=0;" vertex="1" parent="1">
          <mxGeometry y="860" width="290" height="100" as="geometry" />
        </mxCell>
        <mxCell id="Q_Z5UvJhH4riaAeOvCrb-57" value="&lt;h1 style=&quot;margin-top: 0px;&quot;&gt;&lt;font size=&quot;3&quot;&gt;8)Tabular telÃ©fonos&lt;/font&gt;&lt;/h1&gt;&lt;p&gt;&lt;br&gt;&lt;/p&gt;" style="text;html=1;whiteSpace=wrap;overflow=hidden;rounded=0;" vertex="1" parent="1">
          <mxGeometry x="10" y="710" width="180" height="40" as="geometry" />
        </mxCell>
        <mxCell id="Q_Z5UvJhH4riaAeOvCrb-58" value="Biblioteca" style="swimlane;fontStyle=0;childLayout=stackLayout;horizontal=1;startSize=26;fillColor=none;horizontalStack=0;resizeParent=1;resizeParentMax=0;resizeLast=0;collapsible=1;marginBottom=0;html=1;" vertex="1" parent="1">
          <mxGeometry x="25" y="760" width="140" height="78" as="geometry" />
        </mxCell>
        <mxCell id="Q_Z5UvJhH4riaAeOvCrb-59" value="direcciÃ³n" style="text;strokeColor=none;fillColor=none;align=left;verticalAlign=top;spacingLeft=4;spacingRight=4;overflow=hidden;rotatable=0;points=[[0,0.5],[1,0.5]];portConstraint=eastwest;whiteSpace=wrap;html=1;" vertex="1" parent="Q_Z5UvJhH4riaAeOvCrb-58">
          <mxGeometry y="26" width="140" height="26" as="geometry" />
        </mxCell>
        <mxCell id="Q_Z5UvJhH4riaAeOvCrb-60" value="nombre Pk" style="text;strokeColor=none;fillColor=none;align=left;verticalAlign=top;spacingLeft=4;spacingRight=4;overflow=hidden;rotatable=0;points=[[0,0.5],[1,0.5]];portConstraint=eastwest;whiteSpace=wrap;html=1;" vertex="1" parent="Q_Z5UvJhH4riaAeOvCrb-58">
          <mxGeometry y="52" width="140" height="26" as="geometry" />
        </mxCell>
        <mxCell id="Q_Z5UvJhH4riaAeOvCrb-62" value="biblioteca" style="swimlane;fontStyle=0;childLayout=stackLayout;horizontal=1;startSize=26;fillColor=none;horizontalStack=0;resizeParent=1;resizeParentMax=0;resizeLast=0;collapsible=1;marginBottom=0;html=1;" vertex="1" parent="1">
          <mxGeometry x="230" y="760" width="140" height="78" as="geometry" />
        </mxCell>
        <mxCell id="Q_Z5UvJhH4riaAeOvCrb-64" value="telÃ©fono" style="text;strokeColor=none;fillColor=none;align=left;verticalAlign=top;spacingLeft=4;spacingRight=4;overflow=hidden;rotatable=0;points=[[0,0.5],[1,0.5]];portConstraint=eastwest;whiteSpace=wrap;html=1;" vertex="1" parent="Q_Z5UvJhH4riaAeOvCrb-62">
          <mxGeometry y="26" width="140" height="26" as="geometry" />
        </mxCell>
        <mxCell id="Q_Z5UvJhH4riaAeOvCrb-65" value="nombre Pk" style="text;strokeColor=none;fillColor=none;align=left;verticalAlign=top;spacingLeft=4;spacingRight=4;overflow=hidden;rotatable=0;points=[[0,0.5],[1,0.5]];portConstraint=eastwest;whiteSpace=wrap;html=1;" vertex="1" parent="Q_Z5UvJhH4riaAeOvCrb-62">
          <mxGeometry y="52" width="140" height="26" as="geometry" />
        </mxCell>
      </root>
    </mxGraphModel>
  </diagram>
</mxfile>
